<svg id="Layer_1" data-name="Layer 1" xmlns="http://www.w3.org/2000/svg" viewBox="0 0 25.44 25.50844">
  <defs>
    <style>
      .cls-1 {
        fill: none;
        stroke: #f2f2f2;
        stroke-miterlimit: 10;
        stroke-width: 0.25px;
      }

      .cls-2 {
        fill: #353535;
        fill-opacity: 0.1;
      }

      .cls-3 {
        fill: #f2f2f2;
      }

      .cls-4 {
        font-size: 1px;
        font-family: MyriadPro-Regular, Myriad Pro;
        letter-spacing: 0.12598em;
      }

      .cls-4, .cls-6 {
        fill: #ededed;
      }

      .cls-5 {
        fill: #c1861e;
      }
    </style>
  </defs>
  <title>samuga</title>
  <g id="background">
    <path class="cls-1" d="M12.72334.13172A12.61963,12.61963,0,1,0,25.343,12.75134,12.6339,12.6339,0,0,0,12.72334.13172Z"/>
    <circle class="cls-2" cx="12.72" cy="12.74801" r="12.72"/>
  </g>
  <g id="increment-background">
    <path class="cls-3" d="M23.217,12.748A10.492,10.492,0,1,0,12.72,23.245,10.49627,10.49627,0,0,0,23.217,12.748Zm-21.75092,0A11.25391,11.25391,0,1,1,12.72,24.00192,11.255,11.255,0,0,1,1.46609,12.748Z"/>
  </g>
  <g id="degree_numbers" data-name="degree numbers">
    <text class="cls-4" transform="translate(7.87675 2.11178) rotate(-20.00005)">340</text>
    <text class="cls-4" transform="translate(4.54701 4.38679) rotate(-40.00027)">320</text>
    <text class="cls-4" transform="translate(2.25697 7.71803) rotate(-60.00013)">300</text>
    <text class="cls-4" transform="translate(1.18247 11.6666) rotate(-79.99992)">280</text>
    <text class="cls-4" transform="translate(1.48585 15.68217) rotate(-100.00008)">260</text>
    <text class="cls-4" transform="translate(3.21644 19.36452) rotate(-119.99987)">240</text>
    <text class="cls-4" transform="translate(6.09058 22.30202) rotate(-139.99973)">220</text>
    <text class="cls-4" transform="translate(9.72455 24.04233) rotate(-159.99995)">200</text>
    <text class="cls-4" transform="translate(13.74238 24.39246) rotate(180)">180</text>
    <text class="cls-4" transform="translate(17.69029 23.38285) rotate(159.99995)">160</text>
    <text class="cls-4" transform="translate(21.02076 21.10809) rotate(139.99973)">140</text>
    <text class="cls-4" transform="translate(23.31129 17.77685) rotate(119.99987)">120</text>
    <text class="cls-4" transform="translate(24.38604 13.82852) rotate(100.00008)">100</text>
    <text class="cls-4" transform="translate(24.13848 10.12842) rotate(79.99992)">80</text>
    <text class="cls-4" transform="translate(22.51198 6.40814) rotate(60.00013)">60</text>
    <text class="cls-4" transform="translate(19.72279 3.39861) rotate(40.00027)">40</text>
    <text class="cls-4" transform="translate(16.14476 1.56274) rotate(20.00005)">20</text>
    <text class="cls-4" transform="translate(12.4639 1.10248)">0</text>
  </g>
  <g id="increments">
    <path id="_360" data-name="360" class="cls-5" d="M12.62033,1.608v.56c-.25458,0-.5186.02-.77318.04L11.8,1.648C12.07344,1.628,12.34689,1.608,12.62033,1.608Z"/>
    <path id="_355" data-name="355" class="cls-5" d="M11.7,1.658l.05.56c-.28.02-.55.07-.82.11l-.09-.55A8.08862,8.08862,0,0,1,11.7,1.658Z"/>
    <path id="_350" data-name="350" class="cls-5" d="M10.74,1.788l.1.56c-.28.05-.54.11-.81.18l-.14-.55C10.17,1.908,10.45,1.838,10.74,1.788Z"/>
    <path id="_345" data-name="345" class="cls-5" d="M9.79,2.008l.15.55c-.27.07-.53.15-.79.24l-.19-.53C9.23,2.168,9.51,2.088,9.79,2.008Z"/>
    <path id="_340" data-name="340" class="cls-5" d="M8.86,2.308l.2.53c-.26.09-.52.2-.76.31l-.24-.51C8.32,2.518,8.59,2.408,8.86,2.308Z"/>
    <path id="_335" data-name="335" class="cls-5" d="M7.97,2.678l.24.52c-.25.12-.5.24-.74.38l-.28-.49C7.44,2.938,7.7,2.808,7.97,2.678Z"/>
    <path id="_330" data-name="330" class="cls-5" d="M7.11,3.138l.28.49c-.24.14-.47.28-.7.44l-.32-.47C6.61,3.438,6.85,3.288,7.11,3.138Z"/>
    <path id="_325" data-name="325" class="cls-5" d="M6.29,3.658l.32.47c-.22.16-.44.32-.65.5l-.37-.44C5.82,4.008,6.05,3.828,6.29,3.658Z"/>
    <path id="_320" data-name="320" class="cls-5" d="M5.52,4.258l.36.43c-.21.18-.41.36-.61.56l-.4-.4C5.08,4.638,5.3,4.448,5.52,4.258Z"/>
    <path id="_315" data-name="315" class="cls-5" d="M4.8,4.918l.4.4c-.19.19-.37.4-.55.61l-.43-.37C4.4,5.338,4.6,5.118,4.8,4.918Z"/>
    <path id="_310" data-name="310" class="cls-5" d="M4.58,5.998c-.17.21-.33.43-.49.66l-.47-.33c.17-.23.34-.47.53-.69Z"/>
    <path id="_305" data-name="305" class="cls-5" d="M3.56,6.408l.47.33c-.16.22-.3.46-.44.7l-.49-.29C3.25,6.898,3.4,6.648,3.56,6.408Z"/>
    <path id="_300" data-name="300" class="cls-5" d="M3.05,7.238l.49.28c-.14.24-.26.48-.38.73l-.51-.24A8.04125,8.04125,0,0,1,3.05,7.238Z"/>
    <path id="_295" data-name="295" class="cls-5" d="M2.6,8.098l.52.24c-.12.25-.22.5-.32.76l-.53-.19Q2.42,8.503,2.6,8.098Z"/>
    <path id="_290" data-name="290" class="cls-5" d="M2.24,8.998l.53.2c-.09.25-.18.52-.25.78l-.55-.14C2.05,9.548,2.14,9.278,2.24,8.998Z"/>
    <path id="_285" data-name="285" class="cls-5" d="M2.5,10.078c-.07.26-.13.53-.18.8l-.56-.1c.05-.29.12-.57.19-.85Z"/>
    <path id="_280" data-name="280" class="cls-5" d="M1.74,10.878l.56.1c-.04.27-.09.54-.11.82l-.57-.05C1.65,11.448,1.69,11.168,1.74,10.878Z"/>
    <path id="_275" data-name="275" class="cls-5" d="M1.62,11.848l.56.04586c-.02.24766-.04.49533-.04.75217H1.58C1.58,12.37085,1.6,12.10484,1.62,11.848Z"/>
    <path id="_270" data-name="270" class="cls-5" d="M2.19,13.64082l-.57.04719c-.02-.27367-.04-.54734-.04-.821h.56C2.15,13.1218,2.16,13.386,2.19,13.64082Z"/>
    <path id="_265" data-name="265" class="cls-5" d="M2.19,13.738q.045.405.12.81l-.56.1a8.08862,8.08862,0,0,1-.12-.86Z"/>
    <path id="_260" data-name="260" class="cls-5" d="M2.32,14.648c.05.27.11.54.18.8l-.54.15c-.08-.28-.14-.56-.2-.85Z"/>
    <path id="_255" data-name="255" class="cls-5" d="M2.78,16.328l-.53.2c-.1-.27-.19-.55-.27-.83l.55-.15A6.45579,6.45579,0,0,0,2.78,16.328Z"/>
    <path id="_250" data-name="250" class="cls-5" d="M3.13,17.188l-.52.24c-.12-.27-.23-.53-.33-.81l.53-.19C2.91,16.688,3.01,16.938,3.13,17.188Z"/>
    <path id="_245" data-name="245" class="cls-5" d="M3.55,18.008l-.49.28a8.04125,8.04125,0,0,1-.4-.77l.51-.24C3.29,17.528,3.41,17.768,3.55,18.008Z"/>
    <path id="_240" data-name="240" class="cls-5" d="M4.04,18.788l-.46.32c-.17-.24-.32-.48-.47-.74l.49-.28C3.74,18.328,3.88,18.558,4.04,18.788Z"/>
    <path id="_235" data-name="235" class="cls-5" d="M4.6,19.518l-.44.37c-.18-.23-.36-.46-.52-.7l.46-.32C4.26,19.088,4.42,19.308,4.6,19.518Z"/>
    <path id="_230" data-name="230" class="cls-5" d="M5.22,20.198l-.4.4c-.21-.2-.4-.42-.59-.64l.43-.36C4.84,19.798,5.02,20.008,5.22,20.198Z"/>
    <path id="_225" data-name="225" class="cls-5" d="M5.9,20.828l-.37.43c-.22-.19-.44-.38-.64-.59l.4-.4A8.09372,8.09372,0,0,0,5.9,20.828Z"/>
    <path id="_220" data-name="220" class="cls-5" d="M6.63,21.388l-.33.46c-.24-.17-.47-.34-.69-.52l.36-.44A8.16152,8.16152,0,0,0,6.63,21.388Z"/>
    <path id="_215" data-name="215" class="cls-5" d="M7.4,21.888l-.28.49c-.25-.15-.5-.3-.74-.47l.33-.46C6.93,21.598,7.16,21.748,7.4,21.888Z"/>
    <path id="_210" data-name="210" class="cls-5" d="M8.22,22.308l-.24.52c-.27-.13-.52-.26-.78-.4l.29-.49C7.72,22.068,7.97,22.198,8.22,22.308Z"/>
    <path id="_205" data-name="205" class="cls-5" d="M9.07,22.668l-.2.53c-.27-.1-.54-.21-.8-.33l.24-.51C8.55,22.468,8.81,22.578,9.07,22.668Z"/>
    <path id="_200" data-name="200" class="cls-5" d="M9.94,22.948l-.14.55c-.29-.08-.56-.16-.83-.26l.19-.53Q9.55,22.843,9.94,22.948Z"/>
    <path id="_195" data-name="195" class="cls-5" d="M10.84,23.158l-.1.56c-.29-.06-.57-.12-.85-.2l.15-.54C10.3,23.048,10.57,23.108,10.84,23.158Z"/>
    <path id="_190" data-name="190" class="cls-5" d="M11.75,23.288l-.05.56c-.29-.03-.57-.07-.86-.12l.1-.56Q11.345,23.243,11.75,23.288Z"/>
    <path id="_185" data-name="185" class="cls-5" d="M12.60882,23.328v.57c-.2696,0-.53921-.02-.80882-.04l.04648-.57C12.0975,23.308,12.35781,23.328,12.60882,23.328Z"/>
    <path id="_180" data-name="180" class="cls-5" d="M13.59317,23.288l.04683.57c-.26224.02-.53384.04-.81481.04v-.57C13.08743,23.328,13.3403,23.308,13.59317,23.288Z"/>
    <path id="_175" data-name="175" class="cls-5" d="M14.51,23.168l.1.56c-.29.05-.57.09-.87.12l-.05-.56C13.97,23.258,14.24,23.218,14.51,23.168Z"/>
    <path id="_170" data-name="170" class="cls-5" d="M15.41,22.978l.14.54c-.28.08-.56.14-.85.2l-.09-.56C14.88,23.108,15.14,23.048,15.41,22.978Z"/>
    <path id="_165" data-name="165" class="cls-5" d="M16.29,22.708l.19.53c-.27.1-.55.18-.83.26l-.15-.55C15.77,22.878,16.03,22.798,16.29,22.708Z"/>
    <path id="_160" data-name="160" class="cls-5" d="M17.14,22.358l.24.51q-.39.18-.81.33l-.19-.53C16.64,22.578,16.89,22.468,17.14,22.358Z"/>
    <path id="_155" data-name="155" class="cls-5" d="M17.96,21.938l.28.49c-.25.14-.51.27-.77.4l-.24-.52C17.48,22.198,17.72,22.068,17.96,21.938Z"/>
    <path id="_150" data-name="150" class="cls-5" d="M18.74,21.448l.33.46c-.24.17-.49.32-.74.47l-.28-.49C18.28,21.748,18.52,21.598,18.74,21.448Z"/>
    <path id="_145" data-name="145" class="cls-5" d="M19.48,20.888l.36.44c-.22.18-.46.35-.7.52l-.32-.46C19.04,21.228,19.27,21.068,19.48,20.888Z"/>
    <path id="_140" data-name="140" class="cls-5" d="M20.16,20.268l.4.4c-.21.21-.42.4-.65.59l-.36-.43C19.76,20.648,19.96,20.468,20.16,20.268Z"/>
    <path id="_135" data-name="135" class="cls-5" d="M20.78,19.598l.44.36c-.19.22-.38.44-.59.64l-.4-.4C20.42,20.008,20.6,19.798,20.78,19.598Z"/>
    <path id="_130" data-name="130" class="cls-5" d="M21.35,18.868l.46.32c-.17.24-.34.47-.53.7l-.43-.37C21.03,19.308,21.19,19.088,21.35,18.868Z"/>
    <path id="_125" data-name="125" class="cls-5" d="M21.85,18.088l.49.28c-.15.26-.3.5-.47.74l-.46-.32C21.56,18.558,21.71,18.328,21.85,18.088Z"/>
    <path id="_120" data-name="120" class="cls-5" d="M22.79,17.518c-.13.26-.26.52-.4.77l-.49-.28c.13-.24.26-.49.38-.73Z"/>
    <path id="_115" data-name="115" class="cls-5" d="M22.63,16.428l.54.19c-.1.28-.22.54-.34.81l-.51-.24C22.43,16.938,22.54,16.688,22.63,16.428Z"/>
    <path id="_110" data-name="110" class="cls-5" d="M23.47,15.698c-.08.28-.17.56-.27.83l-.53-.2c.09-.25.18-.51.25-.78Z"/>
    <path id="_105" data-name="105" class="cls-5" d="M23.13,14.648l.55.1c-.05.29-.12.57-.19.85l-.55-.15C23.01,15.188,23.08,14.918,23.13,14.648Z"/>
    <path id="_100" data-name="100" class="cls-5" d="M23.82,13.788c-.03.29-.07.58-.12.86l-.56-.1q.075-.405.12-.81Z"/>
    <path id="_95" data-name="95" class="cls-5" d="M23.3,12.8578h.57c0,.27674-.02.55347-.04.83021l-.57-.04772C23.28,13.38264,23.3,13.11545,23.3,12.8578Z"/>
    <path id="_90" data-name="90" class="cls-5" d="M23.87,12.65119H23.3c0-.2585-.02-.50776-.04-.757l.57-.04615C23.85,12.1065,23.87,12.37423,23.87,12.65119Z"/>
    <path id="_85" data-name="85" class="cls-5" d="M23.82,11.748l-.56.05c-.03-.28-.07-.55-.11-.82l.55-.1A8.27649,8.27649,0,0,1,23.82,11.748Z"/>
    <path id="_80" data-name="80" class="cls-5" d="M23.69,10.778l-.56.1c-.05-.27-.11-.54-.18-.8l.55-.15C23.57,10.208,23.64,10.488,23.69,10.778Z"/>
    <path id="_75" data-name="75" class="cls-5" d="M23.47,9.838l-.54.14c-.08-.26-.16-.53-.25-.78l.53-.2A8.15807,8.15807,0,0,1,23.47,9.838Z"/>
    <path id="_70" data-name="70" class="cls-5" d="M23.18,8.908l-.54.19a7.12259,7.12259,0,0,0-.31-.76l.51-.24C22.97,8.368,23.07,8.638,23.18,8.908Z"/>
    <path id="_65" data-name="65" class="cls-5" d="M22.8,8.008l-.51.24c-.12-.25-.24-.49-.38-.73l.49-.28C22.54,7.488,22.68,7.748,22.8,8.008Z"/>
    <path id="_60" data-name="60" class="cls-5" d="M22.35,7.148l-.49.29c-.14-.24-.28-.48-.44-.7l.46-.33C22.05,6.648,22.2,6.898,22.35,7.148Z"/>
    <path id="_55" data-name="55" class="cls-5" d="M21.82,6.328l-.46.33a8.16152,8.16152,0,0,0-.5-.66l.44-.36C21.48,5.858,21.66,6.098,21.82,6.328Z"/>
    <path id="_50" data-name="50" class="cls-5" d="M21.23,5.558l-.43.37a8.09372,8.09372,0,0,0-.56-.61l.4-.4C20.85,5.118,21.04,5.338,21.23,5.558Z"/>
    <path id="_45" data-name="45" class="cls-5" d="M20.57,4.848l-.4.4a8.09372,8.09372,0,0,0-.61-.56l.37-.43C20.15,4.448,20.37,4.638,20.57,4.848Z"/>
    <path id="_40" data-name="40" class="cls-5" d="M19.85,4.188l-.36.44a8.16152,8.16152,0,0,0-.66-.5l.33-.47C19.4,3.828,19.63,4.008,19.85,4.188Z"/>
    <path id="_35" data-name="35" class="cls-5" d="M19.08,3.598l-.33.47c-.22-.16-.46-.3-.69-.44l.28-.49C18.59,3.288,18.84,3.438,19.08,3.598Z"/>
    <path id="_30" data-name="30" class="cls-5" d="M18.26,3.088l-.29.49c-.24-.14-.48-.26-.73-.38l.24-.52C17.74,2.808,18,2.938,18.26,3.088Z"/>
    <path id="_25" data-name="25" class="cls-5" d="M17.39,2.638l-.24.51c-.25-.11-.5-.22-.76-.31l.19-.53Q17,2.458,17.39,2.638Z"/>
    <path id="_20" data-name="20" class="cls-5" d="M16.49,2.268l-.19.53c-.26-.09-.52-.17-.79-.24l.15-.55C15.94,2.088,16.22,2.168,16.49,2.268Z"/>
    <path id="_15" data-name="15" class="cls-5" d="M15.56,1.978l-.14.55q-.405-.105-.81-.18l.1-.56C15,1.838,15.28,1.908,15.56,1.978Z"/>
    <path id="_10" data-name="10" class="cls-5" d="M14.61,1.778l-.1.55c-.27-.04-.54-.09-.81-.11l.05-.56A8.08862,8.08862,0,0,1,14.61,1.778Z"/>
    <path id="_5" data-name="5" class="cls-5" d="M13.65,1.648l-.04686.56c-.26244-.02-.51551-.04-.778-.04v-.56C13.10638,1.608,13.37819,1.628,13.65,1.648Z"/>
  </g>
  <g id="NEWS">
    <path class="cls-6" d="M13.37861,3.40271c-.12207.01563-.15966.042-.166.13184-.00586.07763-.01172.146-.01172.31982v.79541h-.11182l-.834-.99951v.45166a3.058,3.058,0,0,0,.01025.31006c.00781.08789.04981.13379.19776.14209v.07373h-.49561V4.55408c.11377-.01025.16406-.04.17578-.13428a2.60618,2.60618,0,0,0,.01221-.31787V3.6283a.23746.23746,0,0,0-.042-.16162c-.03614-.0503-.084-.05616-.168-.064V3.32849h.38965l.76172.88575V3.85437c0-.17383-.002-.24023-.00782-.314-.00635-.08594-.03808-.12793-.2041-.1377V3.32849h.49365Z"/>
    <path class="cls-6" d="M5.09,12.20886c-.14453.01758-.17041.04786-.22656.21143-.05176.1543-.20166.62793-.32764,1.03564H4.424c-.102-.28759-.21582-.58349-.33007-.8833-.104.30176-.20362.59327-.29786.8833H3.68037c-.08008-.28173-.208-.6958-.31982-1.04931-.04981-.15186-.08008-.186-.20215-.19776v-.07421h.604v.07421c-.1499.01368-.15381.044-.126.14747.06591.23.13574.46386.20166.68164.10205-.28174.19824-.5835.29-.89307h.106c.10987.30566.22363.60352.334.89551.07373-.21631.16943-.54981.19775-.66407.02783-.11767.00781-.1538-.16406-.16748v-.07421H5.09Z"/>
    <path class="cls-6" d="M21.843,13.19324c-.00977.0542-.06543.28369-.084.33984h-1.0371v-.07177c.18164-.01807.19433-.02832.19433-.19629v-.76319c0-.16992-.02441-.18213-.16016-.19384v-.07422h.64942c.21,0,.28027-.002.30762-.00391.00195.03613.01269.19971.0205.32373l-.07812.01025a.48834.48834,0,0,0-.08594-.186c-.03613-.04-.0625-.05225-.16406-.05225h-.12988c-.07618,0-.084.0044-.084.07227v.41748h.19629c.11133,0,.13184-.02979.16113-.17188h.07813v.44581H21.549c-.03125-.14795-.04785-.17188-.16308-.17188H21.1916v.34375c0,.13818.00391.18018.12793.18213h.1416c.11231,0,.14258-.01416.18653-.06787a.91635.91635,0,0,0,.12207-.2002Z"/>
    <path class="cls-6" d="M12.947,21.38855c-.04-.12793-.09619-.27344-.27978-.27344a.18391.18391,0,0,0-.1919.19336c0,.11036.07373.17579.24951.26368.21387.10644.3501.21.3501.4082a.43088.43088,0,0,1-.48193.40723,1.1481,1.1481,0,0,1-.33594-.06153c-.01172-.0459-.0459-.2539-.05957-.34765l.07764-.01856c.04.126.15185.34375.34814.34375a.1835.1835,0,0,0,.1958-.20312c0-.11621-.07226-.18457-.23974-.27442-.208-.11133-.34424-.21191-.34424-.41992,0-.209.16406-.375.46387-.375a1.51079,1.51079,0,0,1,.28613.03516c.00781.07422.022.17871.0376.30468Z"/>
  </g>
  <g id="subnews">
    <g>
      <path class="cls-6" d="M6.58418,6.787c-.04688.0625-.05273.09131-.01563.13379.03321.03711.06055.0708.13868.14844l.35644.35693-.0498.0498-.82129-.07421.20215.20214c.07812.07764.11425.11133.14257.13428.043.03613.083.0376.15235-.02539l.0332.0332-.22265.22266L6.467,7.93543c.04688-.05567.05664-.09131.01953-.13916a1.65982,1.65982,0,0,0-.13672-.14746L6.13691,7.4364a.14876.14876,0,0,0-.09082-.05322c-.03808-.00635-.06347.01221-.10449.04639l-.0332-.03321.17578-.1748.73828.05566L6.66035,7.1156c-.07812-.07763-.10742-.10595-.14355-.13672-.042-.03613-.0752-.04-.15332.02979l-.03321-.0332L6.551,6.75379Z"/>
      <path class="cls-6" d="M7.47871,5.89246c-.05664.07226-.05371.09717-.00586.19629.0459.09228.19141.37109.31836.61035l-.05078.05078c-.17578-.084-.35938-.165-.54395-.24854.08887.18213.17481.35694.2627.5293l-.05273.05225c-.16211-.09082-.4043-.21924-.61329-.32715-.08984-.0459-.11914-.04785-.17968.00195l-.03321-.0332.27149-.271.0332.03321c-.06055.07373-.0498.08886.00977.123.13281.07325.26855.14649.3955.21485-.08007-.17188-.17285-.3501-.2705-.53028L7.0666,6.247c.1875.0874.3711.16992.55176.25147-.06348-.12989-.16992-.32227-.209-.38575-.04-.06543-.06543-.07226-.14844-.00195l-.03321-.0332.21778-.21826Z"/>
    </g>
    <g>
      <path class="cls-6" d="M18.7668,18.6073c.07617.03906.166.0791.248-.0039a.11525.11525,0,0,0,0-.17188c-.04882-.04883-.1123-.0459-.23046-.00684-.14258.04786-.25.06348-.33985-.02636a.27326.27326,0,0,1,.0332-.39844.74733.74733,0,0,1,.17872-.12207c.02636.01465.13378.09277.18261.12891l-.02636.043c-.0752-.03808-.22266-.08593-.31055.002a.117.117,0,0,0,.0039.17969c.05176.05175.11426.0498.2295.01464.14355-.043.25-.05859.34277.03418a.25322.25322,0,0,1-.04.376.99241.99241,0,0,1-.14355.1123c-.03614-.03027-.08985-.07031-.15332-.12011Z"/>
      <path class="cls-6" d="M17.86641,18.94324c-.01953-.0293-.09766-.15625-.11328-.18945l.46386-.46485.03223.03125c-.07324.08985-.07422.09961.00195.17578l.3418.3418c.07617.07617.0918.07031.1582.01563l.03321.0332-.291.291c-.09375.09375-.125.125-.13672.13868l-.1543-.13672.03125-.03906a.28107.28107,0,0,0,.1211.04492c.03418.002.05176-.00391.09765-.04883l.0586-.05859c.0332-.03418.03515-.041.0039-.07032l-.18652-.1875-.08789.08789c-.0498.05078-.0459.07227.00488.14942l-.03515.03515-.19922-.20019.03515-.03516c.08008.05274.09766.05664.15039.00391l.08594-.08594-.15429-.1543c-.06055-.0625-.082-.0791-.13868-.02441L17.926,18.66c-.04981.05078-.05762.07031-.05274.11425a.60357.60357,0,0,0,.03418.14356Z"/>
    </g>
    <g>
      <path class="cls-6" d="M7.02559,18.96179c-.03955.0752-.07959.165.00293.248a.11579.11579,0,0,0,.17236-.001c.04932-.04882.0459-.11132.00683-.23046-.04833-.14258-.063-.25.02588-.33887a.27325.27325,0,0,1,.39844.0332.73639.73639,0,0,1,.12256.17871c-.01514.02539-.09326.13379-.12891.18164l-.043-.02539c.03858-.07519.08594-.22265-.00195-.31054a.11632.11632,0,0,0-.17969.0039c-.05175.05078-.04931.11426-.01513.22949.04345.14356.05957.249-.03369.34278a.25341.25341,0,0,1-.37549-.04,1.02724,1.02724,0,0,1-.1128-.14356c.02979-.03711.07032-.08984.12012-.15429Z"/>
      <path class="cls-6" d="M5.96016,18.12586c.07275.05761.09765.05468.19677.00683.09229-.0459.3711-.1914.61036-.31836l.05029.05078c-.0835.17579-.165.3584-.24805.54395.18164-.08887.35693-.1748.5293-.2627l.05224.05274c-.0913.16113-.21923.4043-.32714.61328-.04639.08984-.04786.11914.00146.17871l-.0332.0332-.27051-.2705.0332-.03321c.07373.06055.08838.04883.12305-.00976.07324-.13281.14648-.26856.21484-.39551-.17187.08008-.35009.17285-.53027.27051L6.31465,18.538c.08789-.18653.17041-.37012.25195-.55079-.12988.06348-.32226.16993-.38623.208-.06494.041-.07226.06641-.00146.14942l-.03321.0332L5.927,18.15906Z"/>
    </g>
    <g>
      <path class="cls-6" d="M18.85469,6.78748c-.06153-.04688-.08985-.05274-.13281-.01563-.03711.03223-.07032.06055-.14844.13867L18.216,7.267l-.04981-.0498.07422-.82227-.20215.20312a1.9077,1.9077,0,0,0-.13476.14258c-.03516.043-.03711.082.02539.15235l-.03321.0332L17.674,6.70349l.03321-.0332c.05566.04688.09082.05664.13867.01953a1.75436,1.75436,0,0,0,.14746-.13672l.21289-.21289a.14794.14794,0,0,0,.05273-.09082c.00684-.03808-.01171-.06347-.04589-.10449l.0332-.0332.1748.17578-.05664.7373.16211-.16113c.07813-.07813.10547-.1084.13672-.14453.03613-.041.041-.07422-.0293-.15235l.03321-.0332.2207.2207Z"/>
      <path class="cls-6" d="M19.00313,7.72888c-.02833.01954-.15625.09766-.18946.11524l-.46484-.46485L18.381,7.348c.08887.07227.09961.07227.17481-.00195l.3418-.3418c.07617-.07617.07031-.09277.01562-.1582l.0332-.0332.291.291c.09375.09375.127.124.13867.13575l-.13574.15332-.03906-.0293a.32786.32786,0,0,0,.04492-.12305c.001-.0332-.00488-.05078-.04981-.0957l-.05859-.05859c-.0332-.03418-.04-.03516-.07031-.00586l-.1875.1875.08789.08789c.05078.05078.07324.04492.15039-.00489l.03516.03516-.2002.2002-.03516-.03516c.05176-.08106.05567-.09863.00391-.15039l-.08691-.08789-.1543.1543c-.06152.0625-.07813.083-.02344.13964l.0625.06348c.05078.05078.07031.05664.11524.05273a.61675.61675,0,0,0,.14355-.03515Z"/>
    </g>
  </g>
</svg>
